<?xml version="1.0" standalone="no"?>
<!DOCTYPE svg PUBLIC "-//W3C//DTD SVG 20010904//EN"
 "http://www.w3.org/TR/2001/REC-SVG-20010904/DTD/svg10.dtd">
<svg version="1.0" xmlns="http://www.w3.org/2000/svg"
 width="48.000000pt" height="48.000000pt" viewBox="0 0 48.000000 48.000000"
 preserveAspectRatio="xMidYMid meet">

<g transform="translate(0.000000,48.000000) scale(0.100000,-0.100000)"
fill="#000000" stroke="none">
<path d="M340 366 c-16 -20 -9 -60 13 -64 24 -5 35 28 14 43 -12 9 -14 14 -5
23 8 8 8 12 1 12 -6 0 -16 -7 -23 -14z m17 -48 c-3 -8 -6 -5 -6 6 -1 11 2 17
5 13 3 -3 4 -12 1 -19z"/>
<path d="M131 284 c-31 -39 -29 -117 4 -149 13 -14 36 -25 50 -25 28 0 65 31
65 55 0 22 -29 18 -50 -7 -15 -19 -20 -20 -34 -9 -21 18 -22 104 -1 121 18 15
45 6 45 -15 0 -8 9 -15 20 -15 24 0 26 18 4 48 -22 32 -76 30 -103 -4z"/>
</g>
</svg>
